<?xml version="1.0" encoding="utf-8"?>
<!-- Generator: Adobe Illustrator 21.1.0, SVG Export Plug-In . SVG Version: 6.00 Build 0)  -->
<svg version="1.1" id="Layer_1" xmlns="http://www.w3.org/2000/svg" xmlns:xlink="http://www.w3.org/1999/xlink" x="0px" y="0px"
	 viewBox="0 0 500.2 49.7" style="enable-background:new 0 0 500.2 49.7;" xml:space="preserve">
<style type="text/css">
	.st0{enable-background:new    ;}
	.st1{fill:#CC4C00;}
	.st2{fill:#4C4C4C;}
	.st3{fill:#231F20;}
</style>
<g id="Stacked-Group-3" transform="translate(67.000000, 0.000000)">
	<g class="st0">
		<path class="st1" d="M11.7,27.1c-0.8,0-1.5-0.1-2.2-0.3c-0.6-0.2-1.1-0.4-1.6-0.7C7.5,25.8,7.2,25.4,7,25s-0.3-0.9-0.3-1.4
			s0.2-0.9,0.5-1.2c0.3-0.3,0.8-0.5,1.3-0.5c0,0.5,0.1,1,0.2,1.5c0.1,0.5,0.3,0.9,0.6,1.3s0.6,0.7,1,0.9c0.4,0.2,0.9,0.3,1.5,0.3
			c1.1,0,2-0.3,2.6-0.8c0.6-0.5,0.9-1.3,0.9-2.3c0-0.5-0.1-0.9-0.2-1.2c-0.1-0.4-0.3-0.7-0.6-1s-0.7-0.6-1.2-0.9s-1.1-0.6-1.8-0.9
			c-0.8-0.3-1.4-0.7-2-1c-0.5-0.4-1-0.8-1.4-1.2c-0.4-0.4-0.7-0.9-0.9-1.5C7.1,14.6,7,13.9,7,13.3c0-0.7,0.1-1.4,0.4-1.9
			c0.3-0.6,0.7-1,1.1-1.4C9,9.5,9.6,9.2,10.2,9c0.7-0.2,1.4-0.3,2.2-0.3c0.7,0,1.4,0.1,2,0.2c0.6,0.2,1.1,0.4,1.5,0.6
			c0.4,0.3,0.7,0.6,0.9,0.9c0.2,0.3,0.3,0.7,0.3,1.1c0,0.5-0.2,0.9-0.5,1.2c-0.4,0.3-0.8,0.4-1.4,0.4c0-0.4,0-0.8-0.1-1.2
			s-0.3-0.7-0.5-1s-0.5-0.5-0.9-0.7s-0.8-0.3-1.3-0.3s-0.9,0.1-1.3,0.2c-0.4,0.1-0.7,0.3-1,0.6c-0.3,0.2-0.5,0.5-0.6,0.9
			s-0.2,0.7-0.2,1.2s0.1,0.9,0.2,1.3c0.1,0.4,0.3,0.7,0.7,1c0.3,0.3,0.7,0.6,1.2,0.9c0.5,0.3,1.1,0.6,1.8,0.8c0.7,0.3,1.4,0.6,2,1
			c0.6,0.3,1.1,0.7,1.5,1.1s0.7,0.9,0.9,1.4c0.2,0.5,0.3,1.1,0.3,1.7c0,0.8-0.1,1.5-0.4,2.1s-0.7,1.1-1.2,1.6
			c-0.5,0.4-1.2,0.8-1.9,1S12.6,27.1,11.7,27.1z"/>
		<path class="st1" d="M31.7,26.8v-1H32c0.3,0,0.6,0,0.8-0.1c0.2,0,0.5-0.1,0.6-0.2c0.2-0.1,0.3-0.3,0.4-0.5
			c0.1-0.2,0.2-0.5,0.2-0.9v-5.9h-8.1V24c0,0.4,0.1,0.7,0.2,0.9c0.1,0.2,0.3,0.4,0.4,0.5c0.2,0.1,0.4,0.2,0.7,0.2
			c0.3,0,0.5,0.1,0.8,0.1h0.3v1H21v-1h0.3c0.3,0,0.6,0,0.8-0.1c0.2,0,0.5-0.1,0.7-0.2s0.3-0.3,0.4-0.5s0.2-0.5,0.2-0.9V11.7
			c0-0.4-0.1-0.7-0.2-0.9s-0.3-0.4-0.4-0.5c-0.2-0.1-0.4-0.2-0.7-0.2c-0.2,0-0.5-0.1-0.8-0.1H21V9h7.3v1H28c-0.3,0-0.5,0-0.8,0.1
			c-0.3,0-0.5,0.1-0.7,0.3c-0.2,0.1-0.3,0.3-0.4,0.5s-0.2,0.5-0.2,0.9v5.1H34v-5.1c0-0.4-0.1-0.7-0.2-0.9c-0.1-0.2-0.3-0.4-0.4-0.5
			c-0.2-0.1-0.4-0.2-0.6-0.3c-0.2,0-0.5-0.1-0.8-0.1h-0.3V9H39v1h-0.3c-0.3,0-0.6,0-0.8,0.1c-0.2,0-0.5,0.1-0.7,0.3
			c-0.2,0.1-0.3,0.3-0.4,0.5c-0.1,0.2-0.2,0.5-0.2,0.9v12.3c0,0.4,0.1,0.7,0.2,0.9c0.1,0.2,0.3,0.4,0.4,0.5c0.2,0.1,0.4,0.2,0.7,0.2
			c0.2,0,0.5,0.1,0.8,0.1H39v1C39,26.8,31.7,26.8,31.7,26.8z"/>
		<path class="st1" d="M46,20.9l-1,2.6c-0.1,0.2-0.1,0.4-0.2,0.6c0,0.2-0.1,0.4-0.1,0.5c0,0.4,0.1,0.7,0.4,0.9
			c0.3,0.2,0.7,0.3,1.3,0.3H47v1h-6.1v-1h0.5c0.2,0,0.5,0,0.6-0.1s0.3-0.2,0.5-0.3c0.1-0.1,0.3-0.3,0.4-0.6c0.1-0.3,0.3-0.6,0.4-1
			L48.8,9h2l5.7,15.5c0.1,0.3,0.2,0.5,0.3,0.6c0.1,0.2,0.2,0.3,0.4,0.4c0.1,0.1,0.3,0.2,0.5,0.2s0.4,0.1,0.6,0.1h0.3v1h-6.9v-1h0.6
			c1,0,1.5-0.4,1.5-1.2c0-0.1,0-0.3-0.1-0.4c0-0.1-0.1-0.3-0.2-0.5l-1-2.8C52.5,20.9,46,20.9,46,20.9z M50.5,15.2
			c-0.3-0.7-0.5-1.4-0.7-2.1c-0.2-0.6-0.4-1.3-0.5-1.9c-0.1,0.3-0.1,0.6-0.2,0.9c-0.1,0.3-0.2,0.6-0.3,0.9c-0.1,0.3-0.2,0.6-0.3,0.9
			c-0.1,0.3-0.2,0.7-0.4,1.1l-1.7,4.6H52L50.5,15.2z"/>
		<path class="st1" d="M72.2,9.2L75.3,20c0.2,0.8,0.4,1.6,0.6,2.4s0.3,1.4,0.4,2c0.1-0.6,0.3-1.2,0.4-1.9c0.2-0.7,0.4-1.4,0.6-2.2
			l2.2-7.7c0-0.1,0.1-0.2,0.1-0.3s0.1-0.2,0.1-0.4c0-0.1,0-0.2,0.1-0.3c0-0.1,0-0.2,0-0.3c0-0.4-0.1-0.7-0.4-0.9s-0.7-0.3-1.2-0.3
			h-0.6V9h6.1v1h-0.5c-0.2,0-0.5,0-0.6,0.1c-0.2,0-0.3,0.1-0.5,0.3c-0.1,0.1-0.3,0.3-0.4,0.6s-0.2,0.6-0.4,1l-4.2,14.9h-2.2l-4.1-14
			l-3.8,14h-2.3l-4.6-15.5c-0.1-0.3-0.2-0.5-0.3-0.6c-0.1-0.2-0.2-0.3-0.4-0.4c-0.1-0.1-0.3-0.2-0.5-0.2s-0.4-0.1-0.6-0.1H58V9h6.9
			v1h-0.6c-0.5,0-0.9,0.1-1.1,0.3c-0.2,0.2-0.4,0.5-0.4,0.9c0,0.1,0,0.3,0.1,0.4S63,12,63,12.2l2.3,8c0.2,0.8,0.4,1.5,0.6,2.2
			s0.3,1.4,0.5,2c0.1-0.7,0.3-1.4,0.4-2.1c0.2-0.8,0.4-1.6,0.6-2.4l3-10.7C70.4,9.2,72.2,9.2,72.2,9.2z"/>
		<path class="st1" d="M99.2,26.8l-9.4-14.4V24c0,0.4,0.1,0.7,0.2,0.9c0.1,0.2,0.3,0.4,0.4,0.5c0.2,0.1,0.4,0.2,0.7,0.2
			c0.3,0,0.5,0.1,0.8,0.1h0.3v1h-6.3v-1h0.3c0.3,0,0.6,0,0.8-0.1c0.2,0,0.5-0.1,0.7-0.2s0.3-0.3,0.4-0.5s0.2-0.5,0.2-0.9V11.7
			c0-0.4-0.1-0.7-0.2-0.9s-0.3-0.4-0.4-0.5s-0.4-0.2-0.7-0.2c-0.2,0-0.5-0.1-0.8-0.1h-0.3V9h4.6l8.9,13.8V11.7
			c0-0.4-0.1-0.7-0.2-0.9s-0.3-0.4-0.4-0.5s-0.4-0.2-0.7-0.2c-0.2,0-0.5-0.1-0.8-0.1H97V9h6.3v1H103c-0.3,0-0.6,0-0.8,0.1
			c-0.2,0-0.5,0.1-0.7,0.3s-0.3,0.3-0.4,0.5s-0.2,0.5-0.2,0.9v15H99.2z"/>
		<path class="st1" d="M110.9,25.6h4.8c0.4,0,0.7-0.1,1-0.2s0.5-0.3,0.7-0.4c0.2-0.2,0.3-0.4,0.4-0.7c0.1-0.2,0.2-0.5,0.2-0.8
			l0.2-1.1h1.3l-0.2,4.4H106v-1h0.3c0.3,0,0.5,0,0.8-0.1c0.2,0,0.5-0.1,0.7-0.2s0.3-0.3,0.4-0.5s0.2-0.5,0.2-0.9V11.8
			c0-0.4-0.1-0.7-0.2-0.9s-0.3-0.4-0.4-0.5c-0.2-0.1-0.4-0.2-0.7-0.3c-0.2,0-0.5-0.1-0.8-0.1H106V9h12.6l0.1,4.4h-1.3l-0.1-1.1
			c0-0.3-0.1-0.5-0.2-0.8s-0.2-0.5-0.4-0.7c-0.2-0.2-0.4-0.3-0.7-0.4c-0.3-0.1-0.6-0.2-1-0.2h-4.2v6.7h6v1.2h-6L110.9,25.6
			L110.9,25.6z"/>
		<path class="st1" d="M127.5,25.6h4.8c0.4,0,0.7-0.1,1-0.2s0.5-0.3,0.7-0.4c0.2-0.2,0.3-0.4,0.4-0.7c0.1-0.2,0.2-0.5,0.2-0.8
			l0.2-1.1h1.3l-0.2,4.4h-13.4v-1h0.3c0.3,0,0.5,0,0.8-0.1c0.2,0,0.5-0.1,0.7-0.2s0.3-0.3,0.4-0.5s0.2-0.5,0.2-0.9V11.8
			c0-0.4-0.1-0.7-0.2-0.9s-0.3-0.4-0.4-0.5c-0.2-0.1-0.4-0.2-0.7-0.3c-0.2,0-0.5-0.1-0.8-0.1h-0.3V9h12.6l0.1,4.4H134l-0.1-1.1
			c0-0.3-0.1-0.5-0.2-0.8s-0.2-0.5-0.4-0.7s-0.4-0.3-0.7-0.4c-0.3-0.1-0.6-0.2-1-0.2h-4.2v6.7h6v1.2h-6L127.5,25.6L127.5,25.6z"/>
		<path class="st1" d="M161.5,26.8v-1h0.1c0.3,0,0.5,0,0.7-0.1c0.2,0,0.4-0.1,0.5-0.2c0.2-0.1,0.3-0.3,0.4-0.5
			c0.1-0.2,0.1-0.5,0.2-0.8V10.9l-5.7,16h-1.4L150.5,11v13c0,0.4,0,0.7,0.1,0.9c0.1,0.2,0.2,0.4,0.4,0.5s0.3,0.2,0.6,0.2
			c0.2,0,0.5,0.1,0.8,0.1h0.1v1h-5.8v-1h0.3c0.3,0,0.5,0,0.8-0.1c0.2,0,0.5-0.1,0.7-0.2s0.3-0.3,0.4-0.5c0.1-0.2,0.2-0.5,0.2-0.9
			V11.7c0-0.4-0.1-0.7-0.2-0.9c-0.1-0.2-0.3-0.4-0.4-0.5s-0.4-0.2-0.7-0.2c-0.2,0-0.5-0.1-0.8-0.1h-0.3V9h5.7l5.2,14.3l5-14.3h5.5v1
			h-0.3c-0.3,0-0.6,0-0.8,0.1c-0.2,0-0.5,0.1-0.7,0.3s-0.3,0.3-0.4,0.5s-0.2,0.5-0.2,0.9V24c0,0.4,0.1,0.7,0.2,0.9s0.3,0.4,0.4,0.5
			c0.2,0.1,0.4,0.2,0.7,0.2c0.2,0,0.5,0.1,0.8,0.1h0.3v1L161.5,26.8L161.5,26.8z"/>
		<path class="st1" d="M171.1,26.8v-1h0.3c0.3,0,0.6,0,0.8-0.1c0.2,0,0.5-0.1,0.7-0.2s0.3-0.3,0.4-0.5c0.1-0.2,0.2-0.5,0.2-0.9V11.8
			c0-0.4-0.1-0.7-0.2-0.9c-0.1-0.2-0.3-0.4-0.4-0.5c-0.2-0.1-0.4-0.2-0.7-0.3c-0.2,0-0.5-0.1-0.8-0.1h-0.3V9h7.3v1H178
			c-0.3,0-0.5,0-0.8,0.1c-0.3,0-0.5,0.1-0.7,0.3c-0.2,0.1-0.3,0.3-0.4,0.5c-0.1,0.2-0.2,0.5-0.2,0.9V24c0,0.4,0.1,0.7,0.2,0.9
			c0.1,0.2,0.3,0.4,0.4,0.5c0.2,0.1,0.4,0.2,0.7,0.2s0.5,0.1,0.8,0.1h0.3v1L171.1,26.8L171.1,26.8z"/>
		<path class="st1" d="M186.5,27.1c-0.8,0-1.5-0.1-2.2-0.3c-0.6-0.2-1.1-0.4-1.6-0.7c-0.4-0.3-0.7-0.7-0.9-1.1s-0.3-0.9-0.3-1.4
			s0.2-0.9,0.5-1.2s0.8-0.5,1.3-0.5c0,0.5,0.1,1,0.2,1.5c0.1,0.5,0.3,0.9,0.6,1.3s0.6,0.7,1,0.9c0.4,0.2,0.9,0.3,1.5,0.3
			c1.1,0,2-0.3,2.6-0.8s0.9-1.3,0.9-2.3c0-0.5-0.1-0.9-0.2-1.2c-0.1-0.4-0.3-0.7-0.6-1s-0.7-0.6-1.2-0.9s-1.1-0.6-1.8-0.9
			c-0.8-0.3-1.4-0.7-2-1s-1.1-0.8-1.4-1.2c-0.4-0.4-0.7-0.9-0.9-1.5c-0.2-0.5-0.3-1.2-0.3-1.8c0-0.7,0.1-1.4,0.4-1.9
			c0.3-0.6,0.7-1,1.1-1.4c0.5-0.4,1.1-0.7,1.7-0.9s1.4-0.3,2.2-0.3c0.7,0,1.4,0.1,2,0.2s1.1,0.4,1.5,0.6c0.4,0.3,0.7,0.6,0.9,0.9
			c0.2,0.3,0.3,0.7,0.3,1.1c0,0.5-0.2,0.9-0.5,1.2c-0.4,0.3-0.8,0.4-1.4,0.4c0-0.4,0-0.8-0.1-1.2s-0.2-0.7-0.5-1
			c-0.2-0.3-0.5-0.5-0.9-0.7s-0.8-0.3-1.3-0.3s-0.9,0.1-1.3,0.2c-0.4,0.1-0.7,0.3-1,0.6c-0.3,0.2-0.5,0.5-0.6,0.9s-0.2,0.7-0.2,1.2
			s0.1,0.9,0.2,1.3c0.1,0.4,0.3,0.7,0.7,1c0.3,0.3,0.7,0.6,1.2,0.9s1.1,0.6,1.8,0.8c0.7,0.3,1.4,0.6,2,1c0.6,0.3,1.1,0.7,1.5,1.1
			s0.7,0.9,0.9,1.4s0.3,1.1,0.3,1.7c0,0.8-0.1,1.5-0.4,2.1c-0.3,0.6-0.7,1.1-1.2,1.6s-1.2,0.8-1.9,1S187.4,27.1,186.5,27.1z"/>
		<path class="st1" d="M201.1,27.1c-0.8,0-1.5-0.1-2.2-0.3c-0.6-0.2-1.1-0.4-1.6-0.7c-0.4-0.3-0.7-0.7-0.9-1.1s-0.3-0.9-0.3-1.4
			s0.2-0.9,0.5-1.2s0.8-0.5,1.3-0.5c0,0.5,0.1,1,0.2,1.5c0.1,0.5,0.3,0.9,0.6,1.3s0.6,0.7,1,0.9c0.4,0.2,0.9,0.3,1.5,0.3
			c1.1,0,2-0.3,2.6-0.8s0.9-1.3,0.9-2.3c0-0.5-0.1-0.9-0.2-1.2c-0.1-0.4-0.3-0.7-0.6-1s-0.7-0.6-1.2-0.9s-1.1-0.6-1.8-0.9
			c-0.8-0.3-1.4-0.7-2-1s-1.1-0.8-1.4-1.2c-0.4-0.4-0.7-0.9-0.9-1.5c-0.2-0.5-0.3-1.2-0.3-1.8c0-0.7,0.1-1.4,0.4-1.9
			c0.3-0.6,0.7-1,1.1-1.4c0.5-0.4,1.1-0.7,1.7-0.9s1.4-0.3,2.2-0.3c0.7,0,1.4,0.1,2,0.2s1.1,0.4,1.5,0.6c0.4,0.3,0.7,0.6,0.9,0.9
			c0.2,0.3,0.3,0.7,0.3,1.1c0,0.5-0.2,0.9-0.5,1.2c-0.4,0.3-0.8,0.4-1.4,0.4c0-0.4,0-0.8-0.1-1.2s-0.2-0.7-0.5-1
			c-0.2-0.3-0.5-0.5-0.9-0.7s-0.8-0.3-1.3-0.3s-0.9,0.1-1.3,0.2c-0.4,0.1-0.7,0.3-1,0.6c-0.3,0.2-0.5,0.5-0.6,0.9s-0.2,0.7-0.2,1.2
			s0.1,0.9,0.2,1.3c0.1,0.4,0.3,0.7,0.7,1c0.3,0.3,0.7,0.6,1.2,0.9s1.1,0.6,1.8,0.8c0.7,0.3,1.4,0.6,2,1c0.6,0.3,1.1,0.7,1.5,1.1
			s0.7,0.9,0.9,1.4s0.3,1.1,0.3,1.7c0,0.8-0.1,1.5-0.4,2.1c-0.3,0.6-0.7,1.1-1.2,1.6s-1.2,0.8-1.9,1S202,27.1,201.1,27.1z"/>
		<path class="st1" d="M210.5,26.8v-1h0.3c0.3,0,0.6,0,0.8-0.1c0.2,0,0.5-0.1,0.7-0.2s0.3-0.3,0.4-0.5c0.1-0.2,0.2-0.5,0.2-0.9V11.8
			c0-0.4-0.1-0.7-0.2-0.9c-0.1-0.2-0.3-0.4-0.4-0.5c-0.2-0.1-0.4-0.2-0.7-0.3c-0.2,0-0.5-0.1-0.8-0.1h-0.3V9h7.3v1h-0.3
			c-0.3,0-0.5,0-0.8,0.1c-0.3,0-0.5,0.1-0.7,0.3c-0.2,0.1-0.3,0.3-0.4,0.5c-0.1,0.2-0.2,0.5-0.2,0.9V24c0,0.4,0.1,0.7,0.2,0.9
			c0.1,0.2,0.3,0.4,0.4,0.5c0.2,0.1,0.4,0.2,0.7,0.2s0.5,0.1,0.8,0.1h0.3v1L210.5,26.8L210.5,26.8z"/>
		<path class="st1" d="M236.8,17.9c0,1.4-0.2,2.6-0.5,3.8c-0.3,1.1-0.8,2.1-1.5,2.9s-1.5,1.4-2.5,1.9s-2.1,0.7-3.4,0.7
			c-1.3,0-2.5-0.2-3.5-0.7s-1.8-1.1-2.5-1.9s-1.1-1.8-1.5-2.9c-0.3-1.1-0.5-2.4-0.5-3.8s0.2-2.6,0.5-3.8c0.3-1.1,0.8-2.1,1.5-2.9
			c0.7-0.8,1.5-1.4,2.5-1.8c1-0.4,2.2-0.7,3.5-0.7s2.4,0.2,3.3,0.7c1,0.4,1.8,1.1,2.5,1.9c0.7,0.8,1.2,1.8,1.5,2.9
			S236.8,16.5,236.8,17.9z M223.9,17.9c0,1.2,0.1,2.3,0.3,3.3s0.5,1.8,0.9,2.5s0.9,1.2,1.6,1.5c0.6,0.4,1.4,0.5,2.4,0.5
			s1.7-0.2,2.4-0.5c0.6-0.4,1.2-0.9,1.6-1.5c0.4-0.7,0.7-1.5,0.9-2.5s0.3-2.1,0.3-3.3c0-1.2-0.1-2.3-0.3-3.3s-0.5-1.8-0.9-2.5
			s-0.9-1.2-1.6-1.5c-0.6-0.3-1.4-0.5-2.3-0.5s-1.7,0.2-2.4,0.5c-0.7,0.4-1.2,0.9-1.6,1.5c-0.4,0.7-0.7,1.5-0.9,2.5
			C224,15.5,223.9,16.6,223.9,17.9z"/>
		<path class="st1" d="M253.5,26.8l-9.4-14.4V24c0,0.4,0.1,0.7,0.2,0.9c0.1,0.2,0.3,0.4,0.4,0.5c0.2,0.1,0.4,0.2,0.7,0.2
			s0.5,0.1,0.8,0.1h0.3v1h-6.3v-1h0.3c0.3,0,0.6,0,0.8-0.1c0.2,0,0.5-0.1,0.7-0.2s0.3-0.3,0.4-0.5c0.1-0.2,0.2-0.5,0.2-0.9V11.7
			c0-0.4-0.1-0.7-0.2-0.9c-0.1-0.2-0.3-0.4-0.4-0.5s-0.4-0.2-0.7-0.2c-0.2,0-0.5-0.1-0.8-0.1h-0.3V9h4.6l8.9,13.8V11.7
			c0-0.4-0.1-0.7-0.2-0.9c-0.1-0.2-0.3-0.4-0.4-0.5s-0.4-0.2-0.7-0.2c-0.2,0-0.5-0.1-0.8-0.1h-0.3V9h6.3v1h-0.3
			c-0.3,0-0.6,0-0.8,0.1c-0.2,0-0.5,0.1-0.7,0.3s-0.3,0.3-0.4,0.5s-0.2,0.5-0.2,0.9v15H253.5z"/>
		<path class="st1" d="M281,26.8l-9.4-14.4V24c0,0.4,0.1,0.7,0.2,0.9c0.1,0.2,0.3,0.4,0.4,0.5c0.2,0.1,0.4,0.2,0.7,0.2
			c0.3,0,0.5,0.1,0.8,0.1h0.3v1h-6.3v-1h0.3c0.3,0,0.6,0,0.8-0.1c0.2,0,0.5-0.1,0.7-0.2s0.3-0.3,0.4-0.5s0.2-0.5,0.2-0.9V11.7
			c0-0.4-0.1-0.7-0.2-0.9s-0.3-0.4-0.4-0.5s-0.4-0.2-0.7-0.2c-0.2,0-0.5-0.1-0.8-0.1h-0.3V9h4.6l8.9,13.8V11.7
			c0-0.4-0.1-0.7-0.2-0.9s-0.3-0.4-0.4-0.5s-0.4-0.2-0.7-0.2c-0.2,0-0.5-0.1-0.8-0.1h-0.3V9h6.3v1h-0.3c-0.3,0-0.6,0-0.8,0.1
			c-0.2,0-0.5,0.1-0.7,0.3s-0.3,0.3-0.4,0.5s-0.2,0.5-0.2,0.9v15H281z"/>
		<path class="st1" d="M304,17.9c0,1.4-0.2,2.6-0.5,3.8c-0.3,1.1-0.8,2.1-1.5,2.9s-1.5,1.4-2.5,1.9s-2.1,0.7-3.4,0.7
			s-2.5-0.2-3.5-0.7s-1.8-1.1-2.5-1.9s-1.1-1.8-1.5-2.9c-0.3-1.1-0.5-2.4-0.5-3.8s0.2-2.6,0.5-3.8c0.3-1.1,0.8-2.1,1.5-2.9
			c0.7-0.8,1.5-1.4,2.5-1.8c1-0.4,2.2-0.7,3.5-0.7s2.4,0.2,3.3,0.7c1,0.4,1.8,1.1,2.5,1.9c0.7,0.8,1.2,1.8,1.5,2.9
			S304,16.5,304,17.9z M291.1,17.9c0,1.2,0.1,2.3,0.3,3.3c0.2,1,0.5,1.8,0.9,2.5s0.9,1.2,1.6,1.5c0.6,0.4,1.4,0.5,2.4,0.5
			s1.7-0.2,2.4-0.5c0.6-0.4,1.2-0.9,1.6-1.5c0.4-0.7,0.7-1.5,0.9-2.5c0.2-1,0.3-2.1,0.3-3.3c0-1.2-0.1-2.3-0.3-3.3s-0.5-1.8-0.9-2.5
			s-0.9-1.2-1.6-1.5c-0.6-0.3-1.4-0.5-2.3-0.5s-1.7,0.2-2.4,0.5c-0.7,0.4-1.2,0.9-1.6,1.5c-0.4,0.7-0.7,1.5-0.9,2.5
			C291.2,15.5,291.1,16.6,291.1,17.9z"/>
		<path class="st1" d="M320.3,23.8c0.4,0.7,0.8,1.2,1.2,1.5c0.4,0.3,0.9,0.5,1.4,0.5h0.1v1h-0.4c-0.8,0-1.4,0-1.9-0.1
			s-0.9-0.2-1.3-0.3c-0.3-0.2-0.6-0.4-0.9-0.7c-0.2-0.3-0.5-0.7-0.8-1.1l-3.4-5.6h-2.1v5.2c0,0.4,0.1,0.7,0.2,0.9
			c0.1,0.2,0.3,0.4,0.4,0.5c0.2,0.1,0.4,0.2,0.7,0.2c0.2,0,0.5,0.1,0.8,0.1h0.3v1h-7.3v-1h0.3c0.3,0,0.5,0,0.8-0.1
			c0.2,0,0.5-0.1,0.7-0.2s0.3-0.3,0.4-0.5s0.2-0.5,0.2-0.9V11.7c0-0.4-0.1-0.7-0.2-0.9s-0.3-0.4-0.4-0.5s-0.4-0.2-0.7-0.2
			c-0.2,0-0.5-0.1-0.8-0.1h-0.3V9h6.7c2.2,0,3.8,0.4,4.8,1.2c1.1,0.8,1.6,2,1.6,3.6c0,0.7-0.1,1.3-0.3,1.8c-0.2,0.5-0.5,0.9-0.8,1.3
			c-0.4,0.4-0.7,0.7-1.2,0.9s-0.9,0.4-1.3,0.6L320.3,23.8z M312.3,17.8h1.8c0.7,0,1.3-0.1,1.8-0.2c0.5-0.2,0.9-0.4,1.2-0.7
			c0.3-0.3,0.5-0.7,0.6-1.2c0.1-0.5,0.2-1.1,0.2-1.7c0-0.7-0.1-1.2-0.2-1.7s-0.4-0.9-0.7-1.1s-0.7-0.5-1.2-0.6s-1.1-0.2-1.8-0.2
			h-1.7L312.3,17.8L312.3,17.8z"/>
		<path class="st1" d="M332.2,24c0,0.4,0.1,0.7,0.2,0.9c0.1,0.2,0.3,0.4,0.4,0.5c0.2,0.1,0.4,0.2,0.7,0.2c0.3,0,0.5,0.1,0.8,0.1h0.6
			v1h-7.8v-1h0.6c0.3,0,0.5,0,0.8-0.1c0.2,0,0.5-0.1,0.7-0.2s0.3-0.3,0.4-0.5s0.2-0.5,0.2-0.9V10.2h-2.4c-0.4,0-0.7,0.1-0.9,0.2
			c-0.2,0.1-0.5,0.3-0.6,0.4c-0.2,0.2-0.3,0.4-0.4,0.7c-0.1,0.2-0.1,0.5-0.2,0.8l-0.1,1.1h-1.3L324,9h14l0.1,4.4h-1.3l-0.1-1.1
			c0-0.3-0.1-0.5-0.2-0.8s-0.2-0.5-0.4-0.7c-0.2-0.2-0.4-0.3-0.6-0.4c-0.3-0.1-0.6-0.2-0.9-0.2h-2.4V24z"/>
		<path class="st1" d="M351.3,26.8v-1h0.3c0.3,0,0.6,0,0.8-0.1c0.2,0,0.5-0.1,0.6-0.2c0.2-0.1,0.3-0.3,0.4-0.5s0.2-0.5,0.2-0.9v-5.9
			h-8.1V24c0,0.4,0.1,0.7,0.2,0.9c0.1,0.2,0.3,0.4,0.4,0.5c0.2,0.1,0.4,0.2,0.7,0.2c0.3,0,0.5,0.1,0.8,0.1h0.3v1h-7.3v-1h0.3
			c0.3,0,0.6,0,0.8-0.1c0.2,0,0.5-0.1,0.7-0.2s0.3-0.3,0.4-0.5s0.2-0.5,0.2-0.9V11.7c0-0.4-0.1-0.7-0.2-0.9s-0.3-0.4-0.4-0.5
			s-0.4-0.2-0.7-0.2c-0.2,0-0.5-0.1-0.8-0.1h-0.3V9h7.3v1h-0.3c-0.3,0-0.5,0-0.8,0.1c-0.3,0-0.5,0.1-0.7,0.3
			c-0.2,0.1-0.3,0.3-0.4,0.5s-0.2,0.5-0.2,0.9v5.1h8.1v-5.1c0-0.4-0.1-0.7-0.2-0.9s-0.3-0.4-0.4-0.5c-0.2-0.1-0.4-0.2-0.6-0.3
			c-0.2,0-0.5-0.1-0.8-0.1h-0.3V9h7.3v1h-0.3c-0.3,0-0.6,0-0.8,0.1c-0.2,0-0.5,0.1-0.7,0.3c-0.2,0.1-0.3,0.3-0.4,0.5
			s-0.2,0.5-0.2,0.9v12.3c0,0.4,0.1,0.7,0.2,0.9c0.1,0.2,0.3,0.4,0.4,0.5c0.2,0.1,0.4,0.2,0.7,0.2c0.2,0,0.5,0.1,0.8,0.1h0.3v1
			C358.6,26.8,351.3,26.8,351.3,26.8z"/>
		<path class="st1" d="M374.9,9.2L378,20c0.2,0.8,0.4,1.6,0.6,2.4s0.3,1.4,0.4,2c0.1-0.6,0.3-1.2,0.4-1.9c0.2-0.7,0.4-1.4,0.6-2.2
			l2.2-7.7c0-0.1,0.1-0.2,0.1-0.3s0.1-0.2,0.1-0.4s0-0.2,0.1-0.3c0-0.1,0-0.2,0-0.3c0-0.4-0.1-0.7-0.4-0.9s-0.7-0.3-1.2-0.3h-0.6V9
			h6.1v1H386c-0.2,0-0.5,0-0.6,0.1c-0.2,0-0.3,0.1-0.5,0.3c-0.1,0.1-0.3,0.3-0.4,0.6s-0.2,0.6-0.4,1l-4.2,14.9h-2.2l-4.1-14l-3.8,14
			h-2.3l-4.6-15.5c-0.1-0.3-0.2-0.5-0.3-0.6c-0.1-0.2-0.2-0.3-0.4-0.4s-0.3-0.2-0.5-0.2s-0.4-0.1-0.6-0.1h-0.3V9h6.9v1H367
			c-0.5,0-0.9,0.1-1.1,0.3s-0.4,0.5-0.4,0.9c0,0.1,0,0.3,0.1,0.4c0,0.1,0.1,0.3,0.1,0.5l2.3,8c0.2,0.8,0.4,1.5,0.6,2.2
			s0.4,1.4,0.5,2c0.1-0.7,0.3-1.4,0.4-2.1c0.2-0.8,0.4-1.6,0.6-2.4l3-10.7h1.8V9.2z"/>
		<path class="st1" d="M393.5,25.6h4.8c0.4,0,0.7-0.1,1-0.2s0.5-0.3,0.7-0.4c0.2-0.2,0.3-0.4,0.4-0.7c0.1-0.2,0.2-0.5,0.2-0.8
			l0.2-1.1h1.3l-0.2,4.4h-13.4v-1h0.3c0.3,0,0.5,0,0.8-0.1c0.2,0,0.5-0.1,0.7-0.2s0.3-0.3,0.4-0.5s0.2-0.5,0.2-0.9V11.8
			c0-0.4-0.1-0.7-0.2-0.9s-0.3-0.4-0.4-0.5c-0.2-0.1-0.4-0.2-0.7-0.3c-0.2,0-0.5-0.1-0.8-0.1h-0.3V9h12.6l0.1,4.4H400l-0.1-1.1
			c0-0.3-0.1-0.5-0.2-0.8s-0.2-0.5-0.4-0.7c-0.2-0.2-0.4-0.3-0.7-0.4c-0.3-0.1-0.6-0.2-1-0.2h-4.2v6.7h6v1.2h-6v7.5H393.5z"/>
		<path class="st1" d="M410.4,27.1c-0.8,0-1.5-0.1-2.2-0.3c-0.6-0.2-1.1-0.4-1.6-0.7c-0.4-0.3-0.7-0.7-0.9-1.1s-0.3-0.9-0.3-1.4
			s0.2-0.9,0.5-1.2s0.8-0.5,1.3-0.5c0,0.5,0.1,1,0.2,1.5s0.3,0.9,0.6,1.3c0.3,0.4,0.6,0.7,1,0.9c0.4,0.2,0.9,0.3,1.5,0.3
			c1.1,0,2-0.3,2.6-0.8s0.9-1.3,0.9-2.3c0-0.5-0.1-0.9-0.2-1.2c-0.1-0.4-0.3-0.7-0.6-1s-0.7-0.6-1.2-0.9s-1.1-0.6-1.8-0.9
			c-0.8-0.3-1.4-0.7-2-1s-1.1-0.8-1.4-1.2c-0.4-0.4-0.7-0.9-0.9-1.5c-0.2-0.5-0.3-1.2-0.3-1.8c0-0.7,0.1-1.4,0.4-1.9
			c0.3-0.6,0.7-1,1.1-1.4c0.5-0.4,1.1-0.7,1.7-0.9s1.4-0.3,2.2-0.3c0.7,0,1.4,0.1,2,0.2s1.1,0.4,1.5,0.6c0.4,0.3,0.7,0.6,0.9,0.9
			c0.2,0.3,0.3,0.7,0.3,1.1c0,0.5-0.2,0.9-0.5,1.2c-0.4,0.3-0.8,0.4-1.4,0.4c0-0.4,0-0.8-0.1-1.2s-0.2-0.7-0.5-1
			c-0.2-0.3-0.5-0.5-0.9-0.7S411.5,10,411,10s-0.9,0.1-1.3,0.2c-0.4,0.1-0.7,0.3-1,0.6c-0.3,0.2-0.5,0.5-0.6,0.9s-0.2,0.7-0.2,1.2
			s0.1,0.9,0.2,1.3c0.1,0.4,0.3,0.7,0.7,1c0.3,0.3,0.7,0.6,1.2,0.9c0.5,0.3,1.1,0.6,1.8,0.8c0.7,0.3,1.4,0.6,2,1
			c0.6,0.3,1.1,0.7,1.5,1.1s0.7,0.9,0.9,1.4s0.3,1.1,0.3,1.7c0,0.8-0.1,1.5-0.4,2.1s-0.7,1.1-1.2,1.6s-1.2,0.8-1.9,1
			S411.4,27.1,410.4,27.1z"/>
		<path class="st1" d="M427.2,24c0,0.4,0.1,0.7,0.2,0.9c0.1,0.2,0.3,0.4,0.4,0.5c0.2,0.1,0.4,0.2,0.7,0.2c0.3,0,0.5,0.1,0.8,0.1h0.6
			v1h-7.8v-1h0.6c0.3,0,0.5,0,0.8-0.1c0.2,0,0.5-0.1,0.7-0.2s0.3-0.3,0.4-0.5s0.2-0.5,0.2-0.9V10.2h-2.4c-0.4,0-0.7,0.1-0.9,0.2
			c-0.2,0.1-0.5,0.3-0.6,0.4c-0.2,0.2-0.3,0.4-0.4,0.7c-0.1,0.2-0.1,0.5-0.2,0.8l-0.1,1.1h-1.3L419,9h14l0.1,4.4h-1.3l-0.1-1.1
			c0-0.3-0.1-0.5-0.2-0.8s-0.2-0.5-0.4-0.7c-0.2-0.2-0.4-0.3-0.6-0.4c-0.3-0.1-0.6-0.2-0.9-0.2h-2.4V24z"/>
	</g>
	<g class="st0">
		<path class="st2" d="M14.3,44.8v-4.9H8.1v4.9H6.7V34.2H8v4.6h6.2v-4.6h1.3v10.7h-1.2V44.8z"/>
		<path class="st2" d="M18.1,44.8V34.2h1.3v10.7h-1.3V44.8z"/>
		<path class="st2" d="M21.5,39.5c0-3.3,2.4-5.5,5.5-5.5c1.9,0,3.2,0.8,4.1,2L30,36.7c-0.7-0.9-1.8-1.5-3.1-1.5
			c-2.3,0-4.1,1.8-4.1,4.3s1.8,4.4,4.1,4.4c1.3,0,2.3-0.6,2.9-1.2v-2.2h-3.7v-1.2h5v3.9c-1,1.1-2.4,1.8-4.2,1.8
			C24,45,21.5,42.8,21.5,39.5z"/>
		<path class="st2" d="M40.9,44.8v-4.9h-6.2v4.9h-1.3V34.2h1.3v4.6h6.2v-4.6h1.3v10.7h-1.3V44.8z"/>
		<path class="st2" d="M48.2,43.3l0.8-1c0.7,0.8,1.9,1.5,3.4,1.5c1.9,0,2.5-1,2.5-1.8c0-2.8-6.3-1.2-6.3-5c0-1.8,1.6-3,3.7-3
			c1.6,0,2.9,0.5,3.8,1.5l-0.8,1c-0.8-0.9-1.9-1.3-3.1-1.3c-1.3,0-2.2,0.7-2.2,1.7c0,2.4,6.3,1,6.3,5c0,1.6-1.1,3.1-3.9,3.1
			C50.5,45,49.1,44.3,48.2,43.3z"/>
		<path class="st2" d="M57.8,39.5c0-3.3,2.4-5.5,5.5-5.5c1.9,0,3.2,0.9,4,2.1l-1.1,0.6c-0.6-0.9-1.7-1.6-2.9-1.6
			c-2.3,0-4.1,1.8-4.1,4.3s1.8,4.3,4.1,4.3c1.2,0,2.3-0.6,2.9-1.6l1.1,0.6c-0.9,1.2-2.2,2.1-4.1,2.1C60.2,45,57.8,42.8,57.8,39.5z"
			/>
		<path class="st2" d="M76.6,44.8v-4.9h-6.2v4.9h-1.3V34.2h1.3v4.6h6.2v-4.6H78v10.7h-1.4V44.8z"/>
		<path class="st2" d="M80,39.5c0-3.2,2.1-5.5,5.3-5.5c3.2,0,5.3,2.4,5.3,5.5S88.5,45,85.3,45C82.2,45,80,42.7,80,39.5z M89.2,39.5
			c0-2.5-1.5-4.3-3.9-4.3s-3.9,1.8-3.9,4.3s1.5,4.3,3.9,4.3S89.2,42,89.2,39.5z"/>
		<path class="st2" d="M92.3,39.5c0-3.2,2.1-5.5,5.3-5.5c3.2,0,5.3,2.4,5.3,5.5s-2.1,5.5-5.3,5.5S92.3,42.7,92.3,39.5z M101.5,39.5
			c0-2.5-1.5-4.3-3.9-4.3s-3.9,1.8-3.9,4.3s1.5,4.3,3.9,4.3S101.5,42,101.5,39.5z"/>
		<path class="st2" d="M104.9,44.8V34.2h1.3v9.5h5v1.2h-6.3V44.8z"/>
	</g>
</g>
<g>
	<g>
		<path class="st3" d="M5.8,23.3C5.9,23.5,6,23.8,6.1,24c0.1-0.1,0.2-0.2,0.2-0.3c0-0.4,0-0.9,0.4-1.3C6.4,22.7,6.1,23,5.8,23.3z"/>
		<path class="st3" d="M5.8,23.3C5.9,23.5,6,23.8,6.1,24c0.1-0.1,0.2-0.2,0.2-0.3c0-0.4,0-0.9,0.4-1.3C6.4,22.7,6.1,23,5.8,23.3"/>
		<path class="st3" d="M24.6,17.9c-1.1,0-2.2,0.1-3.2,0.3c0.1,0.2,0.4,0.6,0.6,1.3c1,0.2,2,0.4,3.1,0.7c0.3,0,0.8,0,1.3,0
			C26.3,20.3,26,19,24.6,17.9z"/>
		<path class="st3" d="M24.6,17.9c-1.1,0-2.2,0.1-3.2,0.3c0.1,0.2,0.4,0.6,0.6,1.3c1,0.2,2,0.4,3.1,0.7c0.3,0,0.8,0,1.3,0
			C26.3,20.3,26,19,24.6,17.9"/>
		<path class="st3" d="M34.9,12.4c0-1.3,0.3-2,0.3-2c-1.3,0.8-2.3,1.6-3.2,2.5l3,0.3C34.9,12.9,34.9,12.6,34.9,12.4z"/>
		<path class="st3" d="M34.9,12.4c0-1.3,0.3-2,0.3-2c-1.3,0.8-2.3,1.6-3.2,2.5l3,0.3C34.9,12.9,34.9,12.6,34.9,12.4"/>
		<path class="st3" d="M22.7,17.7c0.4-0.1,0.9-0.1,1.3-0.1c-0.1-0.1-0.3-0.2-0.4-0.2l1.5-0.7c0,0-0.3-0.5-1-1.1
			c-1.1,0.2-2.2,0.4-3.4,0.6C21.4,16.5,22.1,17,22.7,17.7z"/>
		<path class="st3" d="M22.7,17.7c0.4-0.1,0.9-0.1,1.3-0.1c-0.1-0.1-0.3-0.2-0.4-0.2l1.5-0.7c0,0-0.3-0.5-1-1.1
			c-1.1,0.2-2.2,0.4-3.4,0.6C21.4,16.5,22.1,17,22.7,17.7"/>
		<path class="st3" d="M34.9,13.2c-0.7,0-1.9,0.1-3.5,0.2c-0.3,0.3-0.5,0.6-0.8,1c0,0,4.6,1,4.6,0.9C35,14.6,34.9,13.8,34.9,13.2z"
			/>
		<path class="st3" d="M34.9,13.2c-0.7,0-1.9,0.1-3.5,0.2c-0.3,0.3-0.5,0.6-0.8,1c0,0,4.6,1,4.6,0.9C35,14.6,34.9,13.8,34.9,13.2"/>
		<path class="st3" d="M22.3,14.4c0-0.1,0.2-0.7,0.6-1.2c-1.3,0.4-2.5,0.7-3.5,1.1c0.4,0.1,0.9,0.2,1.3,0.5
			C21.2,14.7,21.7,14.6,22.3,14.4z"/>
		<path class="st3" d="M22.3,14.4c0-0.1,0.2-0.7,0.6-1.2c-1.3,0.4-2.5,0.7-3.5,1.1c0.4,0.1,0.9,0.2,1.3,0.5
			C21.2,14.7,21.7,14.6,22.3,14.4"/>
		<path class="st3" d="M22.9,14.7c-1.2,0.3-2.4,0.6-3.5,0.9c0.1,0,0.4,0.1,0.8,0.3c1-0.3,2.2-0.5,3.5-0.7
			C23.5,15,23.2,14.9,22.9,14.7z"/>
		<path class="st3" d="M22.9,14.7c-1.2,0.3-2.4,0.6-3.5,0.9c0.1,0,0.4,0.1,0.8,0.3c1-0.3,2.2-0.5,3.5-0.7
			C23.5,15,23.2,14.9,22.9,14.7"/>
		<path class="st3" d="M56.3,9.9L56.3,9.9L56.3,9.9L56.3,9.9"/>
		<path class="st3" d="M56.3,9.9L56.3,9.9L56.3,9.9L56.3,9.9z"/>
		<path class="st3" d="M24,8.1c0,0.2-0.2,0.4-0.4,0.4c-0.2,0-0.4-0.2-0.4-0.4s0.2-0.4,0.4-0.4C23.9,7.8,24,7.9,24,8.1"/>
		<path class="st3" d="M26.4,12.5c0,0-4.6,0.1-10.6,2.9c0,0.1,0.1,0.3,0.2,0.4C18.2,14.8,22,13.2,26.4,12.5z M15.5,16.8l0.1,0.4
			c6.5-3.7,19.9-4,19.9-4C21.6,13,15.5,16.8,15.5,16.8z M16.5,17.1c0.1,0.3,0.3,0.3,0.3,0.3c8.7-3.5,18.7-2,18.7-2
			C25.4,13.3,16.5,17.1,16.5,17.1z M18.7,18.5c0,0.3,0.5,0.3,0.5,0.3c5.3-2.1,14.2-0.1,14.2-0.1C25.4,16.1,18.7,18.5,18.7,18.5z
			 M16.9,19.3c-0.2,0.5,0.1,0.5,0.1,0.5c6.7-0.7,12.4,2.5,12.4,2.5C23.9,18.8,16.9,19.3,16.9,19.3z M6.8,21.3c0,0,0-0.1,0.2-0.2
			c0,0-3.9-1.4-7,3.4C0,24.6,2.3,21,6.8,21.3z M6.1,21.5c-2.3,0.6-3.9,3.2-3.9,3.2c1.9-2.2,4.1-2.9,4.1-2.9
			C6.7,21.4,6.1,21.5,6.1,21.5z M7,22.1c0,0-0.2-0.2-0.4-0.1c0,0-5.7,5.4-5.8,12.2C0.7,34.2,1.9,26.8,7,22.1z M7.7,22.1
			c0,0-7.6,6.8-5.3,19.3c0,0-1.7-11.5,5.5-18.7C7.9,22.7,8.1,22.3,7.7,22.1z M6.8,25.1c0,0-0.9,1.4-1.7,3.4c0,0,1.5-2.8,1.9-3
			L6.8,25.1z M7.2,25.9c0,0-3.2,5.4-3.2,12.1c0,0,0.5-7.2,3.7-11.8C7.7,26.3,7.8,25.8,7.2,25.9z"/>
		<path class="st3" d="M26.4,12.5c0,0-4.6,0.1-10.6,2.9c0,0.1,0.1,0.3,0.2,0.4C18.2,14.8,22,13.2,26.4,12.5 M15.5,16.8l0.1,0.4
			c6.5-3.7,19.9-4,19.9-4C21.6,13,15.5,16.8,15.5,16.8 M16.5,17.1c0.1,0.3,0.3,0.3,0.3,0.3c8.7-3.5,18.7-2,18.7-2
			C25.4,13.3,16.5,17.1,16.5,17.1 M18.7,18.5c0,0.3,0.5,0.3,0.5,0.3c5.3-2.1,14.2-0.1,14.2-0.1C25.4,16.1,18.7,18.5,18.7,18.5
			 M16.9,19.3c-0.2,0.5,0.1,0.5,0.1,0.5c6.7-0.7,12.4,2.5,12.4,2.5C23.9,18.8,16.9,19.3,16.9,19.3 M6.8,21.3c0,0,0-0.1,0.2-0.2
			c0,0-3.9-1.4-7,3.4C0,24.6,2.3,21,6.8,21.3 M6.1,21.5c-2.3,0.6-3.9,3.2-3.9,3.2c1.9-2.2,4.1-2.9,4.1-2.9
			C6.7,21.4,6.1,21.5,6.1,21.5 M7,22.1c0,0-0.2-0.2-0.4-0.1c0,0-5.7,5.4-5.8,12.2C0.7,34.2,1.9,26.8,7,22.1 M7.7,22.1
			c0,0-7.6,6.8-5.3,19.3c0,0-1.7-11.5,5.5-18.7C7.9,22.7,8.1,22.3,7.7,22.1 M6.8,25.1c0,0-0.9,1.4-1.7,3.4c0,0,1.5-2.8,1.9-3
			L6.8,25.1z M7.2,25.9c0,0-3.2,5.4-3.2,12.1c0,0,0.5-7.2,3.7-11.8C7.7,26.3,7.8,25.8,7.2,25.9"/>
		<path class="st3" d="M47.6,5c0,0-0.7-1.5-7.9-1.6V3.3c0,0-7.3-6.5-18.5-1.5c0,0-2.3,1-3.8,1.8C14.8,4,9.8,5.5,8.9,12.2
			c-1.9,1.3-3,2.5-3.5,3.3C5,16.1,5,16.8,5.1,17c-0.4,0.2-0.5,0.4-0.5,0.4c-0.2,0.4-0.2,0.7-0.1,1c0,0.1,0,0.1,0,0.2
			c-0.1,0.8-0.2,1.7-0.1,2.5c0.1,0,0.2-0.1,0.3-0.1c0,0.1,0,0.3,0,0.4c-0.1,0-0.2,0.1-0.3,0.1c0,0.1,0,0.2,0,0.2l0.2-0.2
			c0,0.2,0,0.4,0.1,0.6L4.8,22c0,0.2,0.1,0.3,0.1,0.5l-0.1,0.1l0,0V23l0.3-0.2c0.2-0.1,0.3-0.1,0.4-0.2c0,0.1,0.1,0.2,0.1,0.3
			c0.2-0.2,0.4-0.4,0.5-0.6c0.2,0,0.4,0,0.4,0c-0.3-0.4-1.4-0.1-1.4-0.1c-0.5-1.7-0.2-3-0.2-3l0,0l0,0l0,0l0,0
			c0.2,0.2,0.8,0.4,0.8,0.4c0-0.8,0.5-0.7,1.1-0.2c0,0,2,1.8,2.5,2.5C9.4,22,9.4,22,9.4,22c-0.4-0.1-0.8,0-0.8,0
			c0.5,0.4,0.7,0.9,0.9,1.3c-0.2,0-0.5-0.1-0.9,0c0,0,0.3,0.3,0.4,0.7c-0.6,0.4-0.8,1.1-0.9,1.5L8,24.3c0,0-1.2-0.3-1.4,0.5
			c0,0-0.1-0.1-0.2-0.4c-0.1,0.1-0.1,0.2-0.2,0.3c0,0.1,0.1,0.2,0.1,0.3l0.3,0.5c0.1-0.2,0.2-0.3,0.2-0.3L7,25.5
			c0,0-0.1,0.1-0.2,0.2C7,25.8,7.1,25.9,7.2,26v-0.1c0.5-0.2,0.5,0.4,0.5,0.4s-0.1,0.1-0.1,0.2l0.1,0.1c0,0,0.3-0.1,0.8-0.1
			C8.7,26.7,8.8,27,9,27.3c0.5,0.8,1.6,1.8,3.5,2.2l0.5,0.1l-0.3-0.4c0,0-0.7-0.9-0.8-2.4c1.1,0.4,2.2,1.1,3.2,2.3
			c0,0-0.2,0.2-0.5,0.5c0.3,0,0.6,0.2,0.7,0.5c0,0.1,0.1,0.2,0.1,0.4c0.1-0.1,0.2-0.3,0.3-0.4c0.8,1.5,1.4,3.4,1.4,6.2
			c-0.6-0.5-1.3-1.3-1.6-1.7l-0.2-0.3l-0.1,0.4c-0.3,1.4,0.1,2.7,1,3.9c0.4,0.5,0.8,0.9,1.1,1.2c-1,2.4-0.2,4.3-0.2,4.3
			c-0.9,0.3-1.9-0.1-1.9-0.1c0.1,1.3,1.6,2.3,1.6,2.3c-1.3,0.3-2.3,0.2-2.3,0.2C20.7,53,28,47.7,28,47.7l-0.8,1.5c3-1.1,3.9-3,3.9-3
			C34.2,43.6,36,44,36,44c5,0.9,7.7,0,7.7,0l-0.5,1.3c4.9-0.8,6.7-3.7,6.7-3.7c0.2-0.2,0.4-0.4,0.7-0.5c0.3-1.3,0.4-3.1-0.3-5.4
			l1,0.9c0,0-0.1-1.2-1.4-3.8c0,0,1.1,0.8,2.2,2.4c0.1-0.1,0.2-0.3,0.3-0.4c0.6-0.8,0.8-1.5,0.9-2.5c0.1-1.2,0.1-2.3,0.1-3.5
			c-0.1-0.1-0.1-0.2-0.2-0.3c-1-1.4-1.8-2.2-1.8-2.2l1.9,1.1c-1.1-5.5-4-9.7-5.2-11.3c1,0.1,2.4,0.2,2.4,0.2
			c-1.1-1.4-2.6-2.4-3.7-3.1c4.7,0,7.5-1.5,7.5-1.5c1.4-0.7,2.9-1.9,3.8-3.8c0.4-0.7,0.6-1.5,0.8-2.5c0-0.1,0-0.1,0-0.1
			S50.4,6.9,47.6,5z M46.5,4.9c1.3,0.7,1.6,1.9,1.6,1.9s-1.3,0-3.1-1.6c0,0-0.3,0.9,0.1,1.5c0,0-1.3-0.5-1.8-2.1
			c0,0-1.1,0.8-1.2,2.9c-2.1-1.7-0.5-2.3-0.5-2.3c-0.3-0.3-0.8-0.4-1.2-0.5V4.6C43.1,4,45.4,4.6,46.5,4.9z M27.8,5.3l-1-1.1l0,0l0,0
			c0,0,0.7-0.6,1.9-0.9C29,3.2,29.4,3.1,29.8,3c0.7-0.1,1.4-0.1,2.3,0c0.2,0.1,0.6,0.4,0.9,0.7c0.2,0.2,0.5,0.4,0.7,0.6
			c-0.4,0.3-0.8,0.6-1.1,1c-0.1,0-0.1,0.1-0.2,0.1c-0.1,0.1-0.2,0.1-0.3,0.2c-0.3-0.1-1.3-0.5-2.2-0.4c-0.2,0-0.5,0.1-0.7,0.2
			c0,0,1.4,0.3,1.6,0.7c0,0.1,0,0.1,0.1,0.1c0,0.1,0,0.1,0,0.1l-0.1-0.1c0,0-0.5,0.3-2,0.8c-0.1,0-0.1,0-0.2,0l0,0l0,0
			c-0.5-0.5-1.5-0.8-2.2-0.9s-1.2-0.2-1.2-0.2l0,0l0,0l0.4-0.6c-0.4,0-0.8,0.2-1.1,0.3c-1,0.5-1.8,1.4-2.5,2.2
			c-0.2-0.3-0.5-0.7-0.5-0.7c-0.2,0.6-0.4,1.2-0.4,1.7C21,9.2,21,9.4,21,9.5h-0.1c-0.1,0-0.1,0.1-0.2,0.1c0,0-0.1,0-0.1,0.1
			c-0.1,0-0.1,0.1-0.2,0.1c0,0-0.1,0-0.1,0.1C20.1,9.9,20,10,20,10s-0.1,0-0.1,0.1c-0.1,0-0.1,0.1-0.2,0.1l-0.1,0.1
			c-0.1,0-0.1,0.1-0.2,0.1l-0.1,0.1c-0.1,0-0.1,0.1-0.2,0.1L19,10.7c-0.1,0-0.1,0.1-0.2,0.1l-0.1,0.1c-0.1,0-0.1,0.1-0.2,0.1
			l-0.1,0.1c-0.1,0-0.1,0.1-0.2,0.1c0,0-0.1,0-0.1,0.1c-0.1,0-0.1,0.1-0.2,0.1c0,0-0.1,0-0.1,0.1c-0.1,0-0.1,0.1-0.2,0.1
			c0,0-0.1,0-0.1,0.1l-0.1,0.1c0,0-0.1,0-0.1,0.1c0,0-0.1,0-0.1,0.1c0,0,0,0-0.1,0c0,0-0.1,0-0.1,0.1l0,0c0,0,0,0-0.1,0l0,0l0,0l0,0
			l0,0c0.4-2,1.8-2.9,1.8-2.9l0,0l0,0c-0.3,1-0.3,1.3-0.3,1.3s2.7-5.1,7.9-5.2C26.6,5.2,27.2,5.2,27.8,5.3z M25,7.5
			c0.2,0.1,0.5,0.3,0.7,0.5c0,0-0.2,2-3.3,1.2c0,0,0.1-0.4,0.4-0.8c0.2,0.4,0.6,0.7,1,0.7c0.6,0,1.2-0.5,1.2-1.2
			C25.1,7.8,25.1,7.6,25,7.5z M25.2,9.8h-0.7c0,0,1.7-0.6,2.3-1.7c0,0-1.2,3.8-4.9,2.1C21.8,10.3,24.1,10.6,25.2,9.8z M19.1,3.7
			c0,0-0.5,0-1.3,0c0.1-0.1,0.3-0.1,0.5-0.2c0.8-0.2,2.3-0.6,3.6,0.1c0,0-3.8,2.2-4.7,3.8C17.1,7.4,17.5,5.3,19.1,3.7z M11.4,7.8
			c1-1.2,2.4-2.3,4.2-2.7c0,0-2.9,2.2-2.9,4.7c0,0,1.8-2,4.4-0.5c0,0,0,0.1,0.1,0.3c-0.3,0.4-0.7,0.6-0.7,0.6
			c-0.5-0.2-1.7-0.1-1.7-0.1c0.4,0.2,0.4,0.5,0.4,0.5c-1.5-0.6-3.1-0.2-3.1-0.2c-0.9,0.2-0.8-0.7-0.8-0.7c-0.7,0.5-0.9,1.6-0.9,1.6
			c-0.3,0.2-0.6,0.3-0.8,0.5C9.9,10.1,10.6,8.8,11.4,7.8z M5.4,16.8c0.1-0.4,0.4-1.4,2.3-2c0,0,0.1-0.2,0.1-0.5c0,0,0.7-0.1,1.3,0.2
			c0-0.1,0-0.3,0-0.4c0,0,0-0.1,0.1-0.2c1.1-0.9,3-1.7,3-1.7v0.4c1.7-0.9,2.8-1,3.1-1l0,0l-0.4,1c-1.2,0.5-2,1.1-2.5,1.4
			C9.7,14.7,6.8,16,5.4,16.8z M9.2,25.6c2.2-0.4,1.9,2.1,2.6,3.2C10.2,28.5,9.2,27.2,9.2,25.6z M12.1,25.8c-0.8-0.1-1.2-1.1-1.2-1.1
			c0.2-0.3,0.6-0.1,0.6-0.1s-0.1-0.9,0.8-0.7c0,0,0.4,0.6,0.3,1.3c0,0-0.7-0.2-1.1-0.6C11.9,25.1,12.1,25.8,12.1,25.8z M13.1,24.4
			c-0.7-0.4-0.8-0.7-0.8-0.7c0.4-0.5,0.7-0.2,0.7-0.2C13.1,24.6,13.1,24.4,13.1,24.4z M13.8,24.3c0,0-0.6,0-0.7-0.7
			c0,0-0.1-0.4,0.4-0.3C13.5,23.2,14.1,23.7,13.8,24.3z M14.3,24.1c-0.1-0.4-0.7-0.8-0.7-0.8c0.3-0.3,0.8-0.1,0.8-0.1
			C14.7,23.8,14.3,24.1,14.3,24.1z M15.5,24.1c0,0-0.5-0.7-0.9-0.6c0,0-0.2-0.6,0.4-0.7C15,22.8,15.7,23.3,15.5,24.1z M16,22.8
			c0.3-0.2,1.2-0.5,2.1,0c0.1,0.2,0.2,0.6,0.2,1.2c0,0.9-0.3,1.8-0.8,2.6C17.4,26.2,15.9,23.8,16,22.8z M17.3,39
			c-1.2-0.8-1.6-2.3-1.6-3.7C16.2,36.8,18.3,37,17.3,39z M20.1,27.6c0.7,3.4,1.1,3.4,1.1,3.4c0.7-3.1,2.4-5.1,2.4-5.1
			c1.6,0.6,1.6,2.8,1.7,2.4l0,0c0-0.4,0.1-1.3,0.1-1.3c2.4,2.8-0.3,7.7-0.3,7.7c-1.7-0.1-2.7-1.1-2.7-1.1c-0.4,0.5-0.6,1.9-0.6,1.9
			c-1.9-0.9-0.8-2.8-0.8-2.8c-1.4,1-2.4,3.8-2.4,3.8C16.1,31.1,20.1,27.6,20.1,27.6z M27.2,29c0,0,1.6,3.7,1,6.1l-0.4-0.5
			c0,0-0.7,1.1-1.6,1.8c0,0,1.2-1.7,1.2-3.2l0.4,0.6C27.8,33.9,28.1,31.3,27.2,29z M22.7,34.3c0.8,1.3,1.9,2,1.9,2
			c0.7,0.4,0.9,0.9,0.9,0.9C25.2,37.7,24,38,24,38C22.1,36.8,22.7,34.3,22.7,34.3z M22.3,38c-0.4,0.2-0.3-1-0.3-1
			c0.2-0.1,0.5,0,0.5,0l0.1,0.5C22.8,38.2,22.3,38,22.3,38z M21.8,38.2c-0.2,0.2-0.4,0.1-0.4,0.1c-0.2-0.1-0.1-1-0.1-1
			c0.1-0.1,0.5,0,0.5,0V38.2z M21.1,38c-0.1,0.4-0.4,0.3-0.4,0.3c-0.3-0.1-0.2-0.9-0.2-0.9c0.4-0.2,0.6,0.1,0.6,0.1V38z M20.2,38.2
			c-0.1,0.2-0.5,0.1-0.5,0.1c-0.1,0-0.1-0.9-0.1-0.9c0.3,0,0.5,0.1,0.5,0.1L20.2,38.2z M19.5,37.3v1.1c-0.7,0.6-0.6-1.1-0.6-1.1
			C19.3,37.2,19.5,37.3,19.5,37.3z M18.1,38.6c-0.1-0.1,0-1.3,0-1.3c0.1-0.1,0.4,0.1,0.4,0.1c0,0.1,0.1,1.2,0.1,1.2
			C18.4,39,18.1,38.6,18.1,38.6z M44.2,42.8L44.2,42.8L44.2,42.8C44.2,42.7,44.2,42.7,44.2,42.8C44.2,42.7,44.2,42.7,44.2,42.8
			c0-0.6-0.3-2.6-3.3-0.8c-0.1,0.1-0.2,0.2-0.4,0.2v-0.1c0-0.3,0-1,0.3-1.8l0,0c-0.3,0-2.8,0.2-5.1,1.4l0,0c0.1-0.2,0.9-1.2,2.3-2.1
			c1-0.6,2.4-1.2,4.1-1.3l0,0l0,0c0,0-0.5,0.9-0.6,1.5l0,0c0.3-0.3,3-2.6,5.7-1.8C47.3,37.9,46.7,41.3,44.2,42.8z M47.4,21.7
			c1,6.6-1.7,10-1.7,10c-0.1-1-0.6-1.8-0.6-1.8c-4.1,9.6-13.3,8.7-13.3,8.7c-0.4-0.7-1-0.7-1-0.7c0.1,3.2-1.9,4-1.9,4
			c-0.7-0.6-2.1-0.5-2.1-0.5c0.9,3.8-6.3,4-6.3,4c0.7-0.8,0.7-2.1,0.7-2.1c-3.3,1.7-2.8-1.4-2.8-1.4c0.9-2,3.9-2,3.9-2
			c4-0.8,3.4,0.7,3.4,0.7c2-1.1,2.8-3,3-3.6c0.4-1.2,1.1-3.5,0.6-6c0.6,0.1,0.8,0.2,0.8,0.2c-0.5-1.9-1.7-3-2-3.2l0,0l1.5,1.1
			c0,0-0.1-4.5-5.2-7.2c0.2-0.1,0.4-0.1,0.4-0.1s-0.3-0.4-0.9-0.6c-0.4-0.3-0.6-0.6,0.3-0.8c-0.7-0.2-1.5-0.3-2.2-0.4
			c0.1,0.4,0,1-0.1,1.6c0,0-0.5-0.7-1.3-0.5c0,0-2.7,0.7-4,0.1c0,0,0.4,0.6,1.4,0.8c0,0-1.9,0.5-3.5,0.6c0,0-0.1-0.9,0.5-1.3
			c0,0-0.7,0-1.3,0.3c0-0.4,0.1-0.9,0.5-1.4c0,0-0.5,0-1.1,0.2c0-0.1,0-0.1,0-0.1c-0.3-1.5-0.1-2.5-0.1-2.5c0.6-1.6,1.5-0.5,1.5-0.5
			c0.2-1.3-1.1-2.5-1.6-2.9c3-1.3,4.9-1.3,6-1.1c0.4,0.1,0.8,0.3,1.3,0.5c0,0-0.6,0.3-1.1,0.5c1.6-0.6,3.1-0.9,4.3-1.2
			c0.2-0.1,0.3-0.3,0.5-0.4c0,0-0.5-0.3-1.9-0.4c0.3-0.2,0.7-0.5,1.2-0.8c1.8,0.2,3.1-1,3.1-1l0.3,0.7c1.2-0.8,1.8-1.8,2.1-2.6
			l0.8-0.3c0,0,0.5,2.2-1,4.1c0,0,3-1.3,4.2-3.8L32.3,9c0,0,0.2-0.2,0.5-0.5c0,0,0.5-0.5,1.3-1.1c0.9-0.6,2.1-1.2,3.4-1.1
			c0,0-0.4-0.2-1.1-0.4c0.3-0.1,0.7-0.2,1.2-0.2C39,5.5,40,7,40,7h-0.5c0.7,0.3,2.6,2.4,2.7,2.9c-2.9-2.3-5.1-3.1-5.1-3.1
			c3.4,2.6,4.5,4.6,4.5,4.6l-1.8-0.3c4.9,2.8,5.9,5,5.9,5c1,1.8,0.6,4.3,0.6,4.3C46,17.2,43.8,15,43.8,15c0.8,2.4-0.1,4.3-0.1,4.3
			c-0.5-0.6-1.3-0.9-1.3-0.9c1.2,2.4,0,4.2,0,4.2c-0.5-0.7-1.4-1-1.4-1c1.7,7-1.9,8.2-1.9,8.2c-2.3,0.7-2.8-4.9-2.8-4.9l-0.6,0.9
			c-1.1-3.8,2-6.2,2-6.2c-0.8-1.2-1.4-2.2-1.8-3.2c-0.1,0.6-0.2,1.4-0.2,1.4c-0.3-0.9-0.5-1.8-0.6-2.5c-0.7-0.1-2.5-0.3-5-0.3
			c-0.5,0.7-0.9,1.5-1.2,2.1l4.4,1.5c0,0-2-0.4-4.7-0.7c-0.4,1.2-0.7,2.2-0.8,3l1.6,1.2c0,0-0.6-0.3-1.6-0.8
			c-0.1,0.6-0.1,0.9-0.1,0.9c4.5,4.4,4.5,6.5,4.5,6.5L31,28.4c1.6,1.8,1.5,5.1,1.5,5.1L31.8,33c1.1,2-1.1,2.8-1.1,2.8
			c10,4.1,13.3-7.3,13.3-7.3l-1.1,1c1.6-3.6,2.2-6.5,2.2-8.8c1.2,2.2,0.5,6.8,0.5,6.8C45.8,27.4,47.3,22.7,47.4,21.7z M56.2,9.9
			c-1.2,1.1-3.1,2.2-5.8,2.7l0.6-0.7c-0.6,0.2-5,0.4-6.2,0.5c-0.3-0.3-0.6-0.6-0.9-0.9c2.1,0.1,6.4,0.1,9.4-1.4L52,11.2
			C51.9,11.3,54.3,11.1,56.2,9.9L56.2,9.9z"/>
	</g>
	<circle class="st3" cx="24" cy="7.9" r="0.5"/>
</g>
</svg>
